<?xml version="1.0" encoding="utf-8"?>
<!-- Generator: Adobe Illustrator 22.1.0, SVG Export Plug-In . SVG Version: 6.00 Build 0)  -->
<svg version="1.1" xmlns="http://www.w3.org/2000/svg" xmlns:xlink="http://www.w3.org/1999/xlink" x="0px" y="0px"
	 viewBox="0 0 2272 1872" style="enable-background:new 0 0 2272 1872;" xml:space="preserve">
<style type="text/css">
	.st0{fill:#F5F5FF;}
	.st1{fill:#D5D3EA;}
	.st2{fill:#EBEBFC;}
	.st3{fill:#A4D38F;}
	.st4{fill:#FFEECB;}
	.st5{fill:#F9AE90;}
	.st6{fill:#78A560;}
	.st7{fill:#D85E38;}
	.st8{fill:#202B35;}
	.st9{fill:#A3391C;}
	.st10{fill:#8889C2;}
	.st11{fill:#FCD96A;}
	.st12{fill:#6B3D44;}
	.st13{fill:#542D34;}
	.st14{fill:#C6616E;}
	.st15{fill:#440235;}
	.st16{fill:#F9BF6B;}
	.st17{fill:#FFFFFF;}
	.st18{fill:#273941;}
	.st19{fill:#1A272B;}
	.st20{fill:#FF777F;}
	.st21{fill:#FFA1AA;}
	.st22{fill:#EF7C2E;}
	.st23{fill:#D3535F;}
	.st24{fill:#1B272B;}
	.st25{fill:#EC5B44;}
	.st26{fill:#A82D20;}
	.st27{fill:#FEC83D;}
	.st28{fill:#FF7364;}
	.st29{fill:#1B2B30;}
	.st30{fill:#38545E;}
	.st31{fill:#80AF68;}
	.st32{fill:#7DAA65;}
</style>
<g id="Background">
	<g id="Layer_1_1_">
	</g>
	<g id="Layer_2">
	</g>
	<g id="Layer_1_2_">
	</g>
	<g>
		<g>
			<rect x="0" class="st0" width="2272" height="1872"/>
		</g>
	</g>
</g>
<g id="object">
	<g>
		<path class="st1" d="M221,1405.7c-11.1-4.4-8.5-22.4-3.7-33.4c4.8-11,13.1-20,19-30.4c29.2-51.5-7.2-118.6,11.5-174.7
			c15.2-45.6,61.6-71.5,97.2-103.9c38-34.5,65.8-80.1,79.1-129.7c8.4-31.4,11.9-65.7,32.3-91c17.3-21.4,44-32.5,68.2-45.6
			c43-23.2,81.3-55.2,111.9-93.3c24.1-30.1,44.1-64.5,74.9-87.8c25.7-19.4,58.2-29.7,90.4-28.6c35.5,1.2,69.3,15.6,104.6,20.2
			c68.9,9.1,136.4-19.3,201.7-42.9c65.4-23.6,138.7-42.6,202.9-16.1c33.4,13.8,74.3,7.1,102.8,29.2c20.8,16,30.8,42,46.3,63.2
			c60,82.2,189,81.3,258.2,155.9c52.1,56.2,59.2,143.7,111.9,199.3c41.6,43.9,109.9,66.2,129.2,123.5c13.9,41-3.1,85.2-6.5,128.4
			c-2.9,36.3,4.1,73.3,20,106c-268.8-0.1-532.5,14.8-798.6,52.9c-151.8,21.7-315,16.7-468.3,20.3c-43.3,1-86.6,2-129.5,7.9
			c-16.3,2.2-32.6,5.1-49.1,5.5c-16.6,0.4-55.5-31.2-72-32.8C369,1399.1,298.4,1436.2,221,1405.7z"/>
		<path class="st2" d="M1953.1,1248c3.4-43.1,20.4-87.4,6.5-128.4c-19.4-57.3-87.6-79.6-129.2-123.5
			c-47.9-50.5-58.1-127.3-98.6-183.1c-56.4,32.8-94.2,96.3-94.6,161.7c-15.6-18.6-45-23.9-66.1-11.8c-21.1,12.1-31.3,40.2-23,63
			c-27.8-24.4-75-22-100.2,5.1c-3.4-12.3,5.5-30.5,11.7-41.6c-12.2-12-32.8-12.4-47.5-3.7c-14.7,8.7-23.9,24.8-28,41.4
			c-4.1,16.6-3.9,33.9-3.5,51c-17.9-14.5-46.7-8.8-61.8,8.6s-25.1,49.9-19.8,72.2c-15.3-18.4-46.6-20.2-63.9-3.7
			c-2.5-22.6,13.4-45.9,35.4-51.9c-17.7-7.4-37.3-10.2-56.4-8.2c-9.7,1-19.6,3.4-27.1,9.6c-6.9,5.7-27.6,25.8-27.9,35.9
			c0.1,0.7,0.3,1.5,0.3,2.3c-0.3-0.7-0.4-1.4-0.3-2.3c-2.5-12.8-13.4-23-25.8-27.4c-13.1-4.7-27.5-3.9-41.2-1.7
			c-15.7,2.5-31.5,6.9-44.7,15.7s-23.8,22.6-26,38.4c-4.4-19.7-21.2-34.7-39.8-42.4s-39.1-9.3-59.2-10.9c-8.7-0.7-29.9-7.9-31.2,0.7
			c0-16-0.5-33.3-10.4-45.8c-9.9-12.6-32.9-15.3-40.4-1.2c0.7-9.6,1.6-19.4,5.7-28.1c4.1-8.7,16.7-20.8,26.3-21
			c-10.6-18-30.3-29.6-50.8-33.4c-20.5-3.9-41.9-0.7-61.7,5.8c-38,12.4-65.9,61.9-69,101.7c-9.8-12.8-26-20.3-42.1-19.5
			s-35,28-43.3,41.8c-5-11.2-18.4-17.8-30.3-15.1c-11.9,2.7-28.6,30-28.2,42.2c-4.1-20.3-33.6-29.8-48.8-15.6
			c1-16.4,3-20.5,18.3-26.6c-4.7-11.8-15.6-20.9-28.1-23.3c-12.5-2.4-33.4,4.9-42.1,14.1c-4-21.6-32.6-34.2-51.3-22.6
			c-2-15.1,9.8-38,22.9-45.6c-2.6-10.5-10.3-19.1-19.7-24.7c-14.1,25-32.2,47.7-53.4,67c-35.6,32.3-82,58.2-97.2,103.9
			c-18.7,56.2,17.6,123.2-11.5,174.7c-5.9,10.4-14.2,19.4-19,30.4c-4.8,11-7.4,29,3.7,33.4c77.4,30.5,148-6.6,234.6,2
			c16.5,1.6,55.4,33.2,72,32.8c16.5-0.4,32.8-3.3,49.1-5.5c42.9-5.8,86.2-6.8,129.5-7.9c153.3-3.6,316.5,1.4,468.3-20.3
			c266-38.1,529.8-53,798.6-52.9C1957.2,1321.3,1950.2,1284.3,1953.1,1248z"/>
		<path class="st0" d="M1973.1,1354c-15.9-32.7-22.9-69.7-20-106c3.4-43.1,20.4-87.4,6.5-128.4c-14.5-43-56.6-66.3-94.3-93.8
			c-10.9,2-21.4,6.9-29.6,14.3c-19.7,17.7-27.6,45.4-28.5,71.9c-9.8-19.1-38.9-20.9-56-7.9c-17.1,13-24.3,35.4-27,56.7
			c-22.6-11-48.8-18.7-72.6-10.8c-23.8,8-41.2,37.4-29,59.2c-29.9-11.5-65.6-6.3-91,13.2c-0.8-8.8,16.4-31.2,22.3-37.9
			c-18.3-2.6-37.7-1.5-54,7.3c-16.2,8.8-28.5,26.4-27.2,44.8c-11.2-8.3-27.7-6.8-39.1,1.4c-11.3,8.1-19.9,19.2-22,32.9
			c-28.8-0.5-58.8,0.1-84.3,13.3c-25.6,13.2-45,42.6-37.5,70.4c-23-18.1-58.2-13-81.3,4.9c-15.9,12.3-27.1,29.2-35.5,47.6
			c0.5-0.1,1-0.1,1.4-0.2C1440.6,1368.8,1704.4,1353.9,1973.1,1354z"/>
		<path class="st0" d="M579.6,1379.3c-4.7-0.9-9.9-1.3-13.8-4.1c-2.5-1.8-4.2-4.5-6.3-6.7c-10.2-11-30.2-10.5-39.8,1.1
			c1.3-23,22.5-43.1,45.5-43.1c-5.1-8.8-10.4-18-18.9-23.6c-8.5-5.7-21-6.6-28.1,0.7c-10.3-17-36-22-51.9-10c-2.1,1.6-4.2,3.5-6.8,4
			c-3.8,0.7-7.4-1.7-10.6-3.8c-20.9-13.1-60.6-16.1-82.1-4c7.1-11.2-6.1-25.7-19.3-27.3s-26.5,3.5-39.8,2.4
			c10.6-18.7,30.6-31.8,51.9-33.9c-13-17.9-35.5-26.1-57.5-23.8c2.5-12.7-11.6-22.3-24.2-25.4c-10.9-2.7-22.2-3.4-33.3-2.1
			c-10.6,53.5,18.8,114.7-8.3,162.5c-5.9,10.4-14.2,19.4-19,30.4c-4.8,11-7.4,29,3.7,33.4c77.4,30.5,148-6.6,234.6,2
			c16.5,1.6,55.4,33.2,72,32.8c16.5-0.4,32.8-3.3,49.1-5.5c17-2.3,34.1-3.8,51.2-4.9C621,1405.9,603.9,1384,579.6,1379.3z"/>
		<path class="st3" d="M253.1,1416.3c-38.9-5.5-80.1,10.2-105.5,40.2c30.5,9,62.6,12.3,94.3,9.8c14.3-1.1,32.5-1.2,38.1,11.9
			c1.8,4.2,1.7,9,3.6,13.2c5.1,11.8,21,13.1,33.8,12.6c44.6-1.8,89.3-3.5,133.9-5.3c5.9-0.2,11.9-0.4,17.4,1.6
			c6.7,2.5,11.8,8.1,17.7,12.1c14.6,9.9,33.4,10.1,51.1,9.7c58.2-1.4,116.3-5.7,174.1-12.8c19.6-2.4,36.3,2.9,42.2,21.7
			c157.5,6.3,315.5,2.6,472.5-11.2c50.4-4.4,89.7-26.1,137.5-42.6c55.8-19.3,116.6-1.6,175.6,1.2c53.8,2.5,107.3-7.6,160.3-17.7
			c16.1-3.1,32.2-6.1,48.3-9.2c74.4-14.2,148.8-28.4,223.2-42.6c21.3-4.1,44.4-9.2,58.1-26c-38.5-35.5-96.3-37.9-148.7-36.1
			c-242.4,8.3-482.8,62.9-725.2,53c-79.9-3.3-158.2,11.1-238.2,10.5c-150.1-1.1-299.5,7.2-449,20.3c-37.2,3.3-75.2,5.3-111.3-4.3
			C324.7,1417.7,286,1421,253.1,1416.3z"/>
		<path class="st4" d="M199.3,1388.6c191.8-8.6,385.4,35.8,575,5.3c83.2-13.4,164.8-41.1,249.1-40.1c18.2,0.2,41.6,12.5,59.8,13.6
			c15,0.9,29.9-1.8,44.8-4.1c43.4-6.9,87.2-11.4,131.1-13.4c234-10.8,467.5-61.8,699.8-31.3c16.8,2.2,22.6,21.2,36.3,31.3
			c3.2,2.4,6.7,5.4,6.8,9.4c0.3,6.5-7.6,9.8-14,11.2c-91.3,19.8-184.7,28.6-277.8,35.7c-69.7,5.3-139.6,9.7-209.4,13.1
			c-94.7,4.7-189.4,7.6-284.2,9.1c-57.8,0.9-116.2,1.3-172.3,15.4c82.1,13.7,163.9,31.1,246.7,38.9
			c140.5,13.2,281.5,20.4,422.4,27.6c105.2,5.4,210.4,10.8,315.6,16.2c16.2,0.8,22,24.2,16.7,39.5c-4.3,12.5-20.2,15.6-33.4,16.7
			c-26.2,2.2-52.5,4.4-78.7,6.5c-17.9,1.5-40.1,6.5-44.1,24c-1.8,8.2,1.2,17.1-1.7,25c-4.4,12.2-19.7,15.6-32.6,17.2
			c-74.8,9.1-132.1,17.6-206.2,31.4c-167,31-295.5-59.4-429.1-101.9c-34-10.8-67.9-21.8-101.8-32.7c-37.7-12.2-75.4-24.3-113.1-36.5
			c-64.2-20.7-128.5-41.5-191.7-65.2c-37.1-13.9-82.1-6.6-121.1,0c-52.6,8.9-106.4,1.5-159.4-4.3c-106.5-11.6-213.8-16.3-320.9-14.1
			c-7.6,0.2-15.6,0.3-22.6-2.9C182.5,1426,197.4,1396,199.3,1388.6z"/>
		<path class="st5" d="M1435.3,1626.1c-5.8,2.5-12.6,7.5-10.8,13.5c1.1,3.8,5.2,5.8,8.9,7.3c88.8,35.5,188.2,28.5,283.5,20.8
			c6.4-0.5,13.1-1.1,18.6-4.4c5.5-3.3,9.4-10.2,7.3-16.2c-1.2-3.2-3.8-5.7-6.6-7.6c-19.2-13.5-44-10.1-65.6-16.2
			c-10.8-3.1-18-12.5-27.8-15.6c-10.7-3.4-27.5,2.3-38.7,3C1548,1614.1,1488.7,1603.6,1435.3,1626.1z"/>
		<path class="st5" d="M1238.9,1522.5c-5-6.1-12.2-9.9-19.3-13.3c-24.3-11.5-50.2-19.5-75.9-27.4l-83.1-25.5
			c-23.7-7.3-47.4-14.6-71.7-19.5c-9.8-2-19.8-3.6-28.9-7.6c-21.7-9.5-45.1-32.4-70.6-20.5c-31.8,14.9-25.5,42.6,4,53.3
			c56.4,20.4,112.7,40.8,169.1,61.2c30.1,10.9,60.4,21.9,91.9,27.8c19.7,3.7,39.7,5.5,59.7,5.3c10.8-0.1,23.7-2.1,28.5-11.8
			C1246.3,1537.5,1243.9,1528.6,1238.9,1522.5z"/>
		<g>
			<path class="st3" d="M390.8,431.2c-13.5,10.5-26.8,22.2-34.2,37.7c6,1.7,12.5-1.3,18.7-0.3c5.3,0.8,9.8,4.4,14.2,7.4
				c10.1,6.9,21.5,11.8,32.8,16.5c2.6,1.1,5.4,2.2,8.1,1.5c1.8-0.5,3.3-1.7,4.6-3.1c4.9-5.3,7-12.5,9.2-19.4
				c5.4-17.2,11.8-34.2,19.3-50.6c3-6.6,18.6-29.8,11-37.7C464.5,372.8,401,423.2,390.8,431.2z"/>
			<path class="st6" d="M396.1,480.1c8.3,4.8,17.2,8.6,26.1,12.3c2.6,1.1,5.4,2.2,8.1,1.5c1.8-0.5,3.3-1.7,4.6-3.1
				c4.9-5.3,7-12.5,9.2-19.4c5.4-17.2,11.8-34.2,19.3-50.6c3-6.6,18.6-29.8,11-37.7c-0.9-0.9-2.3-1.4-4-1.4
				c-17.3,17.7-33.6,36.5-48.7,56.1C411.6,450.9,401.9,464.8,396.1,480.1z"/>
			<path class="st3" d="M654.4,423.7c13.5,10.5,26.8,22.2,34.2,37.7c-6,1.7-12.5-1.3-18.7-0.3c-5.3,0.8-9.8,4.4-14.2,7.4
				c-10.1,6.9-21.5,11.8-32.8,16.5c-2.6,1.1-5.4,2.2-8.1,1.5c-1.8-0.5-3.3-1.7-4.6-3.1c-4.9-5.3-7-12.5-9.2-19.4
				c-5.4-17.2-11.8-34.2-19.3-50.6c-3-6.6-18.6-29.8-11-37.7C580.7,365.3,644.2,415.7,654.4,423.7z"/>
			<path class="st6" d="M636,432.9c-4.8-5.7-10.4-10.5-16-15.3c-16.4-14-32.8-27.9-49.2-41.9c-7.3,8,8.1,31.1,11.1,37.6
				c7.5,16.5,13.9,33.4,19.3,50.6c2.2,6.9,4.3,14.1,9.2,19.4c1.3,1.4,2.8,2.6,4.6,3.1c2.7,0.7,5.5-0.4,8.1-1.5
				c11.3-4.8,22.7-9.6,32.8-16.5c0.3-0.2,0.7-0.5,1-0.7c-2-3.8-4.1-7.6-6.1-11.5C646.3,448.1,641.9,439.9,636,432.9z"/>
		</g>
		<path class="st6" d="M508,509.7c7.2,29.2,17,59.8,8.5,88.6c-5.2,17.3-16.7,32.7-19.2,50.6c-2.2,16.3,3.4,32.6,5.4,48.9
			c4.1,34.4-8.1,68.4-20.1,100.9c13-9.3,30.6-11.7,45.7-6.3c-9.1-9.8-9.4-24.9-6.5-38c2.9-13,8.5-25.6,9.4-38.9
			c1.6-24.5-12.9-48.9-7.6-72.9c4.2-19.3,20.6-34.4,23.8-53.9c4.7-28-18.7-53.4-20.1-81.7c-0.7-15.3,24-79.3-5.1-78.6
			C490.2,429.3,504,493.4,508,509.7z"/>
		<polygon class="st7" points="520.2,118.3 400.5,251 525.4,507.8 644.7,260.5 		"/>
		<path class="st8" d="M435.2,256.3c3.8-7.4,5.1-15.7,6.4-23.9c1.3-8.3,2.6-16.6,2.2-25c-0.1-1.3-0.2-2.6-0.3-3.9L400.5,251
			l13.1,26.9C422.5,272.3,430.4,265.5,435.2,256.3z"/>
		<path class="st8" d="M603.4,253.4c6.5,13.3,16.5,25.1,28.5,33.5l12.8-26.5l-52-59.3C592.2,219.2,595.4,237.3,603.4,253.4z"/>
		<path class="st9" d="M631.9,287c-12.1-8.5-22-20.3-28.5-33.5c-7.9-16.1-11.2-34.2-10.6-52.3l-72.6-82.8l-2.7,3
			c-1.3,41.7-0.9,83.5,0,125.2c0.7,33.8,1.8,67.5,4.5,101.2c2.2,28,5.5,55.8,6.1,83.9c0.5,25.1-1.2,50.1-3.1,75.1l0.5,1.1L631.9,287
			z"/>
		<path class="st10" d="M541.7,320.6l364.2,324.2c3.8,3.8,6.9,8.1,9.8,12.4c2.9,4.3,5.5,8.7,8,13.2c5,8.9,9.6,18.1,13.9,27.3
			c8.7,18.4,16.7,37.2,24.4,56c15.4,37.7,29.7,75.7,43.9,113.8c14.2,38.1,28.1,76.2,42.5,114.2c7.2,18.9,14.6,37.9,22.6,56.4
			c2,4.6,4,9.2,6.2,13.8c2.2,4.5,4.4,9,6.9,13.2c0.6,1.1,1.3,2,1.9,3c0.3,0.5,0.7,0.9,1,1.4l0.5,0.7c0.2,0.2,0.4,0.4,0.6,0.6
			l2.4,2.6c0.8,0.9,1.8,1.7,2.7,2.5c0.9,0.8,1.8,1.7,2.7,2.5l2.8,2.4c1,0.8,1.9,1.6,2.9,2.4l2.9,2.4c3.9,3.2,7.9,6.2,11.9,9.3
			c4.1,3,8.1,6,12.2,9l6.2,4.4l6.2,4.4c4.1,2.9,8.3,5.8,12.5,8.6c16.7,11.4,33.7,22.6,50.7,33.6c34.1,22,68.6,43.3,103.5,64
			c17.4,10.3,35,20.5,52.7,30.4c8.8,4.9,17.7,9.8,26.7,14.4l6.7,3.5l6.8,3.3c4.5,2.2,9.1,4.3,13.6,6.2c1.1,0.5,2.2,0.8,3.4,1.3
			l1.7,0.6l1.9,0.7c1.3,0.5,2.6,0.9,3.8,1.4c1.3,0.6,2.6,1,3.8,1.8c1.3,0.7,2.5,1.3,3.7,2.2c0.6,0.4,1.2,0.8,1.8,1.2l1.7,1.4
			l0.9,0.7l0.8,0.8c0.5,0.6,1.1,1.1,1.6,1.7c0.9,1.3,1.9,2.5,2.6,3.9c0.8,1.3,1.4,2.8,1.9,4.2c0.3,0.7,0.4,1.5,0.6,2.2l0.3,1.1
			l0.2,1.1c0.1,0.7,0.3,1.5,0.3,2.2l0.2,2.1c0.1,0.7,0.1,1.4,0.1,2.1l0,2.1c-0.1,5.5-0.9,10.7-1.7,15.8c-1.6,10.1-3.3,19.9-4.1,29.8
			c-0.4,4.9-0.6,9.9-0.5,14.8c0,2.5,0.2,4.9,0.3,7.4l0.3,3.7c0.1,1.2,0.2,2.4,0.4,3.7l0.5,3.7c0.2,1.2,0.4,2.4,0.6,3.6
			c0.2,1.2,0.4,2.5,0.6,3.5l0.4,1.7c0.1,0.6,0.3,1.1,0.5,1.7c1.3,4.4,3.2,8.9,5.4,13.2c2.2,4.3,4.7,8.6,7.4,12.8
			c1.3,2.1,2.7,4.1,4.1,6.2c1.5,2,2.8,4.1,4.4,6.1c5.9,8,12.3,15.8,18.9,23.2c6.7,7.5,13.6,14.8,20.8,21.8
			c14.3,14.1,29.5,27.4,45.2,39.9c15.8,12.5,32.1,24.3,49.1,35.1c16.9,10.9,34.4,20.9,52.4,29.7c9,4.4,18.1,8.6,27.4,12.5
			c9.3,3.8,18.6,7.4,28.1,10.5c9.5,3.2,19.1,5.9,28.8,8.3c9.7,2.3,19.5,4.2,29.3,5.6c19.7,2.8,39.7,3.4,59.3,1.4l0,0
			c3.3-0.3,6.3,2.1,6.7,5.4c0.3,3.3-2.1,6.3-5.4,6.7l0,0c-20.8,2-41.7,1.2-62.2-1.8c-10.3-1.5-20.4-3.5-30.4-6
			c-10-2.5-19.9-5.4-29.7-8.7c-9.8-3.3-19.4-7-28.9-10.9c-9.5-4-18.8-8.3-28-12.9c-18.4-9.2-36.2-19.5-53.4-30.6
			c-17.2-11.1-33.8-23.2-49.8-36c-16-12.8-31.3-26.4-45.9-40.9c-7.3-7.2-14.3-14.7-21.1-22.4c-6.8-7.7-13.3-15.7-19.4-24.1
			c-1.6-2.1-3-4.2-4.5-6.3c-1.4-2.2-2.9-4.3-4.3-6.5c-2.8-4.4-5.4-8.9-7.8-13.7c-2.4-4.7-4.5-9.7-6-15c-0.2-0.7-0.4-1.3-0.6-2
			l-0.5-2.1c-0.3-1.4-0.5-2.6-0.7-4c-0.2-1.3-0.4-2.6-0.6-3.9l-0.5-3.9c-0.2-1.3-0.3-2.6-0.4-3.9l-0.3-3.9c-0.1-2.6-0.3-5.2-0.2-7.9
			c-0.1-5.2,0.2-10.5,0.6-15.7c0.8-10.4,2.7-20.6,4.3-30.5c0.8-4.9,1.5-9.8,1.6-14.5l0-1.7c0-0.6,0-1.1-0.1-1.7l-0.1-1.7
			c-0.1-0.5-0.2-1.1-0.3-1.6l-0.1-0.8l-0.2-0.7c-0.1-0.5-0.2-1-0.4-1.5l-0.5-1.4l-0.1-0.3l-0.2-0.3l-0.4-0.6
			c-0.4-0.9-1.1-1.6-1.6-2.5l-1-1.1l-0.5-0.6l-0.6-0.5l-1.2-1c-0.4-0.3-0.9-0.6-1.3-0.9c-0.9-0.6-1.9-1.1-2.9-1.7
			c-0.9-0.6-2.1-1-3.1-1.5c-1-0.5-2.2-0.8-3.3-1.3l-3.6-1.3c-1.2-0.5-2.6-0.9-3.8-1.4c-4.8-2-9.5-4.2-14.1-6.5l-6.9-3.4l-6.8-3.5
			c-9-4.8-18-9.7-26.8-14.7c-17.7-10-35.3-20.3-52.8-30.7c-34.9-20.9-69.4-42.5-103.5-64.6c-17-11.1-34-22.4-50.7-33.9
			c-4.2-2.9-8.4-5.8-12.5-8.7l-6.2-4.4l-6.2-4.5c-4.1-3-8.2-6.1-12.3-9.1c-4-3.1-8.1-6.2-12.1-9.5l-3-2.4c-1-0.8-2-1.7-2.9-2.5
			l-2.9-2.5c-1-0.8-1.9-1.8-2.9-2.7c-0.9-0.9-1.9-1.8-2.8-2.7l-2.7-3c-0.2-0.3-0.5-0.5-0.7-0.8l-0.6-0.9c-0.4-0.6-0.9-1.1-1.2-1.7
			c-0.7-1.1-1.5-2.3-2.1-3.4c-2.7-4.6-4.9-9.2-7.1-13.8c-2.2-4.6-4.2-9.3-6.3-14c-8-18.8-15.2-37.8-22.4-56.8
			c-14.3-38.1-28-76.3-42-114.4c-14-38.1-28.1-76.2-43.3-113.8c-7.6-18.8-15.4-37.5-24-55.8c-4.3-9.2-8.7-18.2-13.6-27
			c-2.4-4.4-5-8.7-7.7-12.9c-2.7-4.1-5.7-8.2-9-11.6L539.7,322.8c-0.6-0.6-0.7-1.5-0.1-2.1C540.1,320.1,541.1,320,541.7,320.6z"/>
		<g>
			<g>
				<g>
					<path class="st11" d="M1626.4,1174.6c-3.7-8.6-8.8-16.6-13.1-25c-5.1-10-9-20.7-15.8-29.7c-7.9-10.6-19.6-18.2-32.4-21.3
						c-12.8-3.1-27.1-0.4-39,5.4c-1.2-0.6-8.1,4.9-8.4,6.2c-18.1,99.5,22,109.4,24.9,109.3c7.1-0.1,26.7,2.6,25.9,7.7
						c19,3.1,39.4,5.7,56.7-2.6c0.9-0.4,1.8-0.9,2.2-1.8c0.5-0.9,0.3-1.9,0.2-2.9c-0.4-6,2.2-11.7,3.2-17.6
						C1632.5,1192.8,1630.1,1183.2,1626.4,1174.6z"/>
					<g>
						<path class="st12" d="M1636.9,1087c4.5,10.5,14.2,18.6,25.4,21.1c-2.4,22.3,7.4,44.6,26.4,56.6c15.5,9.7,34.4,11.9,52.5,13.7
							s37,3.7,52.8,13c15.7,9.3,27.4,28.2,22.3,45.7c14.8-19.7,25.6-43.2,23.6-67.7c-2-24.5-16-48.6-38.1-59.4
							c-14.9-7.3-32-8.3-48.4-10.8c-16.4-2.5-33.6-7.4-44.5-20c-5.7-6.6-9.1-14.8-14-22.1c-4.8-7.3-11.8-14-20.5-14.7
							c-8.7-0.8-18.1,7.2-15.9,15.6c0.4-3.7-5.6-5-9.3-4.8C1637.7,1053.7,1632.5,1076.5,1636.9,1087z"/>
						<path class="st13" d="M1823.9,1208.1c-0.3-5.3-2-10.4-4.2-15.2c-4.4-9.8-10.8-19-19.6-25.2s-19.3-9.8-29.7-6.8
							c3.1-1.8,5.7-4,9.3-3.9c-18.5-9.6-39.8-6.6-60.6-6.2c-13.3,0.2-26.6-5.3-35.7-14.9c-9.2-9.6-14.1-23.1-13.3-36.4
							c0.1-1.9,0.3-3.7-0.1-5.6c-1.1-4.9-6.4-7.7-8.2-12.4c9-3.3,19.6-2.3,27.8,2.9c-3.7-4.6-8.3-8.6-13.9-10.7
							c-5.5-2.1-12-2.1-17.2,0.8c2.7-6.3,10.1-9.5,16.9-9.3c6.8,0.3,13.2,3.4,19,7c-4.3-6.9-11.1-12.7-19.1-14
							c-8-1.4-17.1,2.7-20.1,10.3c-0.9,0-0.5-1.1-0.9-1.9c-1.3-2.8-2.6-5.6-3.9-8.4c-0.5-1-0.9-2.2-0.4-3.2c0-0.6,0-1.2,0.1-1.8
							c-0.4,0-0.7,0-1,0c-11.6,0.5-16.8,23.3-12.3,33.8c4.5,10.5,14.2,18.6,25.4,21.1c-2.4,22.3,7.4,44.6,26.4,56.6
							c15.5,9.7,34.4,11.9,52.5,13.7s37,3.7,52.8,13c15.7,9.3,27.4,28.2,22.3,45.7c1.2-1.5,2.3-3.1,3.4-4.7c0.7-2.9,1.3-5.7,2-8.6
							C1822.9,1218.6,1824.2,1213.4,1823.9,1208.1z"/>
						<path class="st14" d="M1662.6,1106.3c-0.3-1-0.9-2-1.5-2.9c-7.2-12.1-8.1-27.8-2.3-40.7c0.2-0.5,0.4-0.9,0.5-1.4
							c0-0.5-0.1-1.1-0.3-1.6c-0.4-1.3-0.8-2.7-1.2-4c-1.7-1.9-5.7-2.6-8.5-2.4c-11.6,0.5-16.8,23.3-12.3,33.8
							c4.5,10.5,14.2,18.6,25.4,21.1c-0.1,1.2-0.2,2.3-0.3,3.5C1662.9,1110,1663.1,1108,1662.6,1106.3z"/>
						<path class="st15" d="M1645.8,1095.3c-1.5-0.1-2.9-0.4-4.4-0.6c5.1,6.7,12.7,11.6,20.9,13.4c-0.1,1.2-0.2,2.3-0.3,3.5
							c0.8-1.6,1.1-3.5,0.5-5.2c-0.3-1-0.9-2-1.5-2.9c-2-3.4-3.5-7.1-4.6-11C1653.3,1094.5,1649.5,1095.5,1645.8,1095.3z"/>
					</g>
					<path class="st12" d="M1670.2,1108.7c0,0-20.8-74.6-72.7-65.9c-51.9,8.7-75.7,38.4-80.4,70.8c0,0,23.6-0.7,15.7,24.3v19.3
						c0,0,10.5-23.9,22-19.3c11.5,4.6,17.4,39.5-4.5,45l31.9,14.2c0,0,23.4,21.7,31.9,21.2s15,2,20.4-3c5.5-5,18.3-32.2,18.3-36.4
						c0-4.2,8.7-27.9,17.4-36.9C1679,1133,1677.7,1119.8,1670.2,1108.7z"/>
					<path class="st13" d="M1602.4,1146.6c-7-14.1-19.7-25.3-34.5-30.6c6-0.9,12-1.7,18.1-2.6c-21.4-8.5-45.6-10.2-68-4.7
						c-0.3,1.6-0.6,3.2-0.8,4.8c0,0,23.6-0.7,15.7,24.3v19.3c0,0,10.5-23.9,22-19.3c11.5,4.6,17.4,39.5-4.5,45l31.9,14.2
						c0,0,12.6,11.7,22.7,17.7c-2.8-27.1-7.9-61.6-25.9-78.7C1586.1,1140.9,1594.1,1144.4,1602.4,1146.6z"/>
				</g>
			</g>
			<path class="st16" d="M1553.1,1230.9c0,0-101.7,8.1-126.7-0.9c-6.9-2.5-29.8-4.9-35.1-5c-6.1-0.1-13,0.4-16.9,5.1
				c-1.7,2-2.6,4.5-3.5,7c-1.1,3.2-2.3,6.7-1.1,9.9c1.7,4.6,7.5,6.3,12.5,6.3c5,0,10.2-0.9,14.7,1.2c3.1,1.5,5.7,4.4,9.1,4.4
				c0.1,0,0.2,0,0.3,0c14.8,16.8,92.5,45.4,119.5,31.3C1554.4,1275.3,1562.5,1268.4,1553.1,1230.9z"/>
			<path class="st11" d="M1474.2,1246.7c-6.8,0.4-29.2,11.8-42.5,9.6c-13.3-2.1-48.4-9-54.7-12.2c-0.4-0.2-0.8-0.3-1.2-0.3
				c-2.7-4.7-7.4-8.6-12.9-10.8c-6.4-2.5-13.8-2.7-20.3-0.4c-2.9,1-5.8,2.6-7.6,5.1c-1.8,2.5-2.5,6-1,8.7c1.5,2.8,4.8,4,7.5,5.7
				c4.6,2.9,7.9,7.4,12,11c2.1,1.8,4.6,3.4,7.2,4.3c0,1.2,0.3,2.1,0.8,2.8c4.3,5.2,44.1,41.4,70.1,47.2c26,5.8,61.8-1.4,67.8-3.4
				C1505.6,1312.1,1506.1,1245,1474.2,1246.7z"/>
			<path class="st16" d="M1474.2,1246.7c-5.5,0.3-21,7.7-33.8,9.5c2.5,2.9,6.5,3.8,10.3,4.6c-3.6,2-4.9,7.2-3,10.9
				c2,3.7,6.7,5.5,10.7,4.4c-2.4,2.3-3,6.2-1.5,9.1c1.5,2.9,5,4.7,8.2,4.1c-2.2,2.3-4.4,6.3-1.9,8.3c0.7,0.5,1.5,0.7,2.2,1
				c2.9,1.3,4.7,4.4,5,7.6c0.4,3.2-0.5,6.3-1.5,9.4c-0.4,1.2-0.9,2.5-1.3,3.7c15.4-1.1,28.4-3.9,31.9-5.1
				C1505.6,1312.1,1506.1,1245,1474.2,1246.7z"/>
			<g>
				<path class="st11" d="M1481.7,1505.6c0,0-36.1,111.4-22.1,122.1c14,10.6,29.1,3,40.4-3.9c11.3-6.9,29.3-55,35.2-75.9
					c5.9-21,20-40.7,20.3-45.6C1555.9,1497.3,1499.7,1487.4,1481.7,1505.6z"/>
				<path class="st17" d="M1500.4,1583.7c-5.7-0.6-11.2-2.5-16.5-4.7c-7-2.9-13.9-6.6-19.6-11.4c-6.7,27.6-11.2,55.2-4.6,60.2
					c14,10.6,29.1,3,40.4-3.9c7.5-4.5,17.8-27,25.7-47.7C1518.7,1581.7,1509.4,1584.5,1500.4,1583.7z"/>
				<path class="st16" d="M1481.7,1505.6c0,0-3.4,10.4-7.6,25.1c3.6-0.5,7.4-0.4,11,0.1c7.3,1,14.4,3.2,21.7,4
					c12.9,1.4,26.2-1.9,37.1-8.9c5.7-11.6,11.4-20.7,11.7-23.7C1555.9,1497.3,1499.7,1487.4,1481.7,1505.6z"/>
				<path class="st18" d="M1456.8,1607.4c0,0-51.1,6.3-51,19.7c0.1,13.4,76.8,30.8,86.6,21.7s16.9-36.4,16.9-36.4
					S1477.7,1629.7,1456.8,1607.4z"/>
				<path class="st19" d="M1478.3,1618.4c-1.1,8.6-0.3,17.3,2.2,25.6c-22.5-1.6-44.3-8-65.9-14.4c-2.9-0.9-5.9-1.7-8.8-2.6
					c0,0,0,0,0,0c0.1,13.4,76.8,30.8,86.6,21.7c3.4-3.2,16.7-35.9,16.9-36.4C1509.3,1612.3,1494.4,1620.5,1478.3,1618.4z"/>
			</g>
			<g>
				<path class="st11" d="M1572.8,1496.2c0,0,15.7,116.1,32.9,119.6c46.8,9.7,13.1,12.2,34.8-21c7.2-11.1,2.7-62.2-1.1-83.7
					c-3.8-21.4,0.4-45.4-1.4-49.9C1636.1,1456.7,1581.2,1472,1572.8,1496.2z"/>
				<path class="st17" d="M1623.4,1558.5c-5.4,2-11.2,2.6-17,2.9c-7.6,0.4-15.4,0.1-22.6-1.8c6,27.8,13.7,54.6,21.9,56.3
					c46.8,9.7,13.1,12.2,34.8-21c4.8-7.3,4.4-32,2.5-54.1C1639,1548.8,1631.9,1555.4,1623.4,1558.5z"/>
				<path class="st16" d="M1572.8,1496.2c0,0,1.5,10.8,4,25.9c3.1-2,6.5-3.5,10-4.7c7-2.3,14.3-3.3,21.3-5.8
					c12.2-4.3,22.8-13,29.6-24.1c0.1-12.9,1.4-23.6,0.2-26.5C1636.1,1456.7,1581.2,1472,1572.8,1496.2z"/>
				<path class="st18" d="M1594.4,1598.8c0,0-43.3,27.8-37.4,39.8c5.9,12,88.3,5.2,93.1-7.3c4.9-12.5-6.3-50.8-6.3-50.8
					S1622.9,1609.9,1594.4,1598.8z"/>
				<path class="st19" d="M1618.6,1599.4c2.7,8.2-6.3,19.5-0.4,25.8c-21,8.3-30,8.2-52.2,11.8c-3,0.5-6,1-9,1.5c0,0,0,0,0,0
					c5.9,12,88.3,5.2,93.1-7.3c4.9-12.5-6.3-50.8-6.3-50.8S1633.9,1594.3,1618.6,1599.4z"/>
			</g>
			<path class="st18" d="M1698.5,1500.2c-20.2-25.6-16.7-70.9-26.8-101.9c-0.3-1-0.7-2-1.5-2.6c-0.9-0.6-2-0.6-3.1-0.5
				c-17.3,1.1-38,11.7-55.2,12.8c-35.7,2.2-70.5-15.5-105.9-10.3c-9.7,1.4-21.6-0.1-29.1,6.7c-11.3,10.2-18,46.8-28.1,58.2
				c-10.2,11.5-13.5,23.3-21.6,34.2c-4.1,5.5-3.3,13.2,1.9,17.6c9.5,8.3,19,11.2,34.2,8.3c6.2-1.2,12.2-3.3,18.5-3.4
				c14.2-0.2,27.3,10.2,41.5,9c9.3-0.8,18-6.8,27.4-5.9c4.6,0.4,8.9,2.5,13.2,4c9.2,3.1,19.2,3.8,28.7,2c4.7-0.9,9.3-2.4,14.1-2.8
				c7.9-0.7,15.7,1.4,23.6,2.2c15.1,1.5,30.1-2.2,44.9-5.8c8.6-2.1,17.7-4.5,23.9-10.7c1.4-1.4,2.6-3,2.7-5
				C1701.5,1503.9,1699.9,1502,1698.5,1500.2z"/>
			<path class="st20" d="M1556.6,1208.4c-25.2,8.4-50.4,16.9-75.7,25.3c-13,4.3-26.8,9.2-35,20.2c8,1.6,16.5,1,24.2-1.8
				c-7.2,4.1-12.8,11-15.3,18.9c6.5,1.6,13.6,0.6,19.5-2.6c-6.1,3.3-10.1,10-10.3,16.9c5.8,0.5,11.8-0.2,17.3-2
				c-4,4.8-7.2,10.4-9.1,16.4c-0.5,1.5-0.8,3.4,0.3,4.5c0.8,0.8,2,0.8,3,0.9c3.1,0.1,6.2,0.3,9.2,0.4c-6.3,37.4-7.5,61-8,99
				c71.3,19.1,129.8,25.6,197.1-4.9c4-49.1,10.1-81.8-3.1-129.2c6.2,0.8,24.9-1.7,30.9-3.3c1.2-0.3,2.7-1.3,2.3-2.4
				c-0.2-0.6-0.9-0.8-1.4-1.1c-3.9-1.5-7.7-3-11.6-4.5c2.8,1.1,3-5.1,1.7-7.8c-0.6-1.2-1.9-2-3.1-2.7c-3.9-2.3-7.8-4.6-11.7-6.9
				c4-0.4,5.4-6.1,3.3-9.5c-2.1-3.4-6.2-4.9-10-6.2c1.7-0.8,1.6-5.1,0.4-6.6c-1.1-1.5-3-2.2-4.8-2.9c-18.2-6.5-34.2-4.6-53.5-6.4
				C1593.9,1208.2,1574.9,1202.3,1556.6,1208.4z"/>
			<path class="st21" d="M1500.2,1335.2c0.7-12.5-0.6-25.7,4.7-37.1c-7,2.5-13.9,5.6-20.4,9.2c-6.1,36.2-7.2,59.7-7.7,97
				c4.4,1.2,8.7,2.3,13.1,3.4c2.5-16.3,5-32.7,7.6-49C1498.6,1350.9,1499.8,1343.1,1500.2,1335.2z"/>
			<path class="st22" d="M1588,1221.6"/>
			<g>
				<path class="st12" d="M1584,1106.3c-4.5,10.5-14.2,18.6-25.4,21.1c2.4,22.3-7.4,44.6-26.4,56.6c-15.5,9.7-34.4,11.9-52.5,13.7
					c-18.2,1.8-37,3.7-52.8,13c-15.7,9.3-27.4,28.2-22.3,45.7c-14.8-19.7-25.6-43.2-23.6-67.7c2-24.5,16-48.6,38.1-59.4
					c14.9-7.3,32-8.3,48.4-10.8c16.4-2.5,33.6-7.4,44.5-20c5.7-6.6,9.1-14.8,14-22.1s11.8-14,20.5-14.7s18.1,7.2,15.9,15.6
					c-0.4-3.7,5.6-5,9.3-4.8C1583.2,1072.9,1588.4,1095.7,1584,1106.3z"/>
				<path class="st13" d="M1397,1227.3c0.3-5.3,2-10.4,4.2-15.2c4.4-9.8,10.8-19,19.6-25.2s19.3-9.8,29.7-6.8
					c-3.1-1.8-5.7-4-9.3-3.9c18.5-9.6,39.8-6.6,60.6-6.2c13.3,0.2,26.6-5.3,35.7-14.9c9.2-9.6,14.1-23.1,13.3-36.4
					c-0.1-1.9-0.3-3.7,0.1-5.6c1.1-4.9,6.4-7.7,8.2-12.4c-9-3.3-19.6-2.3-27.8,2.9c3.7-4.6,8.3-8.6,13.9-10.7
					c5.5-2.1,12-2.1,17.2,0.8c-2.7-6.3-10.1-9.5-16.9-9.3c-6.8,0.3-13.2,3.4-19,7c4.3-6.9,11.1-12.7,19.1-14
					c8-1.4,17.1,2.7,20.1,10.3c0.9,0,0.5-1.1,0.9-1.9c1.3-2.8,2.6-5.6,3.9-8.4c0.5-1,0.9-2.2,0.4-3.2c0-0.6,0-1.2-0.1-1.8
					c0.4,0,0.7,0,1,0c11.6,0.5,16.8,23.3,12.3,33.8c-4.5,10.5-14.2,18.6-25.4,21.1c2.4,22.3-7.4,44.6-26.4,56.6
					c-15.5,9.7-34.4,11.9-52.5,13.7s-37,3.7-52.8,13c-15.7,9.3-27.4,28.2-22.3,45.7c-1.2-1.5-2.3-3.1-3.4-4.7
					c-0.7-2.9-1.3-5.7-2-8.6C1397.9,1237.8,1396.7,1232.6,1397,1227.3z"/>
				<path class="st14" d="M1558.3,1125.5c0.3-1,0.9-2,1.5-2.9c7.2-12.1,8.1-27.8,2.3-40.7c-0.2-0.5-0.4-0.9-0.5-1.4
					c0-0.5,0.1-1.1,0.3-1.6c0.4-1.3,0.8-2.7,1.2-4c1.7-1.9,5.7-2.6,8.5-2.4c11.6,0.5,16.8,23.3,12.3,33.8
					c-4.5,10.5-14.2,18.6-25.4,21.1c0.1,1.2,0.2,2.3,0.3,3.5C1558,1129.2,1557.7,1127.3,1558.3,1125.5z"/>
				<path class="st15" d="M1575.1,1114.5c1.5-0.1,2.9-0.4,4.4-0.6c-5.1,6.7-12.7,11.6-20.9,13.4c0.1,1.2,0.2,2.3,0.3,3.5
					c-0.8-1.6-1.1-3.5-0.5-5.2c0.3-1,0.9-2,1.5-2.9c2-3.4,3.5-7.1,4.6-11C1567.6,1113.7,1571.4,1114.8,1575.1,1114.5z"/>
			</g>
			<path class="st19" d="M1645.7,1413.6c-0.1,6.4,2.3,12.6,4.2,18.8c9,29.6,6.9,62.9,15.6,91.8c3.1-0.7,6.2-1.5,9.3-2.2
				c8.6-2.1,17.7-4.5,23.9-10.7c1.4-1.4,2.6-3,2.7-5c0.1-2.3-1.5-4.3-2.9-6.1c-19.8-25.1-16.8-69.1-26.2-100
				c-8.9,4-17.6,7.3-26.3,10C1645.8,1411.3,1645.7,1412.5,1645.7,1413.6z"/>
			<path class="st23" d="M1703.8,1264.6c-0.2-0.6-0.9-0.8-1.4-1.1c-3.9-1.5-7.7-3-11.6-4.5c2.8,1.1,3-5.1,1.7-7.8
				c-0.6-1.2-1.9-2-3.1-2.7c-3.9-2.3-7.8-4.6-11.7-6.9c4-0.4,5.4-6.1,3.3-9.5c-2.1-3.4-6.2-4.9-10-6.2c1.7-0.8,1.6-5.1,0.4-6.6
				c-1.1-1.5-3-2.2-4.8-2.9c-9.3-3.3-18.1-4.5-27-5c1.6,3.8,3.2,7.5,4.8,11.3c5.2,12.3,10.5,24.8,12.9,38c2.4,13,1.8,26.4,1.3,39.7
				c-0.7,18-1.5,36-2.2,54c-0.5,12.6-1.1,25.3-4.9,37.3c-0.7,2.4-1.6,4.7-2.5,7c-1.4,3.8-2.6,7.6-3.2,11.5c8.6-2.7,17.4-6.1,26.3-10
				c0.5-0.2,1-0.5,1.5-0.7c4-49.1,10.1-81.8-3.1-129.2c6.2,0.8,24.9-1.7,30.9-3.3C1702.8,1266.7,1704.3,1265.7,1703.8,1264.6z"/>
		</g>
		<g>
			<path class="st24" d="M978.1,1433.3c0,0,50.2,1.7,47.5,11.6c-2.7,9.9-64.7,10.5-64.7,10.5s-9.2,0.9-3.6-11.7
				C963,1431.1,978.1,1433.3,978.1,1433.3z"/>
			<path class="st24" d="M897.9,1420.8c0,0,49.7,7.4,45.9,16.9c-3.8,9.5-65.4,3.1-65.4,3.1s-9.3-0.2-2.2-12
				C883.1,1417,897.9,1420.8,897.9,1420.8z"/>
			<g>
				<path class="st25" d="M1043.7,873.4c0,0,83.5,97.8,72.9,140.8s-79.1,14.6-79.1,14.6l2.5-60.5L1043.7,873.4z"/>
				<path class="st26" d="M1067.9,996.1c0.6,0.9,1.2,2.2,0.6,3.1c-0.5,0.6-1.3,0.7-2.1,0.8c-5.7,0.4-11.4,0-16.9-1.2
					c-0.2-4.1-3.5-27.1,1.2-26.8C1055.8,972.4,1065.1,991.9,1067.9,996.1z"/>
				<path class="st27" d="M876.7,661.1c0.4-7.1,4.1-14,3.3-21c-0.5-4.4-2.7-8.7-2-13.1c0.5-2.8,2.1-5.3,4-7.5
					c0.4-0.4,0.8-0.9,1.3-1.2c0.6-0.3,1.3-0.4,1.9-0.5c4.9-0.3,9.9,2.1,12.7,6.1c0.8,1.1,1.4,2.4,1.4,3.7c0,0.6-0.1,1.2-0.1,1.8
					c0.1,1.3,1.1,2.4,1.8,3.5c1.8,3,1.9,6.6,1.9,10.1c0,0.7,0,1.4-0.3,2c-0.3,0.5-0.8,0.8-1.3,1.1c-1.8,1.1-3.8,2-5.9,2.6
					c-0.8,0.2-1.6,0.4-2.2,1c-0.5,0.5-0.9,1.1-1.1,1.8c-0.9,2.5-0.9,5.2-1.3,7.8c-0.4,2.6-1.4,5.3-3.6,6.8
					c-3.1,2.1-7.5,0.8-10.5-1.5"/>
				<path class="st27" d="M947.9,867.4l2.2-20.9c0,0-11.6-5.7-5.4-17s27.5-38.7,42.6-31.5c15.1,7.1,24.5,27.6,14.4,42.2
					c-10.1,14.6-15.8,14.8-15.8,14.8l-5.4,17C980.4,871.9,960.3,878.3,947.9,867.4z"/>
				<path class="st25" d="M1043.7,873.4c0,0-84.4-21-112.5-23.3c-28.1-2.3-46.3-50.1-46.3-50.1l6.8-132.1c0,0-11.3-19.8-18.2-15.9
					s-62.9,133.4-59.2,160.5c3.7,27.1,34.8,124.3,34.8,124.3s23.9,113.3,21,129.4s-24.1,91-5.7,119.3
					c18.5,28.4,40.6,104.3,40.6,104.3s-22.7,13.9-20.5,44.5c2.2,30.6-4.8,89.4-4.8,89.4s22.5,13.4,29,5.4
					c6.4-8,52.4-140.8,50.9-153.8c-1.5-13-15.3-92.4-15.3-92.4l13.7-4.1l30,115.1c0,0-18.5,11.1-17.7,37.5
					c0.8,26.4-18.2,110.6-12.9,112.2c5.3,1.5,21.8,5.3,25,0c3.2-5.3,64.9-153.8,69.6-168.3c4.8-14.5-23.6-188.5-23.6-188.5
					s40-129.8,39.7-158.4C1067.9,899.9,1043.7,873.4,1043.7,873.4z"/>
				<path class="st28" d="M869.7,806.1c1.5,10.7,8.8,19.5,15.9,27.7c4.4,5.1,9.1,10.4,15.5,12.7c3.8,1.4,7.9,1.5,12,1.4
					c2.8,0,5.6-0.2,8.4-0.5C898.9,837,884.8,800,884.8,800l6.8-132.1c0,0-2.7-4.8-6.4-9.2c-2.1,43.5-6.9,86.9-14.3,129.8
					C870,794.3,868.9,800.2,869.7,806.1z"/>
				<path class="st18" d="M999.4,1097.3c-28.5,6.8-58.4,2.2-87.3-2.8c-9-1.6-18.1-3.2-26.1-7.5c-6.6-3.6-12.1-8.8-17.2-14.4
					c-5.4,24.1-21,87.4-4.3,112.9c18.5,28.4,40.6,104.3,40.6,104.3s-22.7,13.9-20.5,44.5c2.2,30.6-4.8,89.4-4.8,89.4
					s22.5,13.4,29,5.4c6.4-8,52.4-140.8,50.9-153.8c-1.5-13-15.3-92.4-15.3-92.4l13.7-4.1l30,115.1c0,0-18.5,11.1-17.7,37.5
					c0.8,26.4-18.2,110.6-12.9,112.2c5.3,1.5,21.8,5.3,25,0s64.9-153.8,69.6-168.3c4.8-14.5-23.6-188.5-23.6-188.5s0-0.1,0-0.1
					C1019.1,1091.1,1009.4,1094.9,999.4,1097.3z"/>
				<path class="st29" d="M1012.1,1295.9c-8.1,1.4-16.6,0.5-24.3-2.5l0.2,0.7c0,0-18.5,11.1-17.7,37.5
					c0.8,26.4-18.2,110.6-12.9,112.2c1.1,0.3,2.7,0.7,4.6,1.2c5.2-26.9,11.4-53.5,18.4-80C987,1340.2,994.9,1314.7,1012.1,1295.9z"
					/>
				<path class="st12" d="M961.4,806.8c-1.7,4.1-3.9,7.9-6.5,11.5c0.5,0.7,1.2,1.3,2.1,1.5c1.1-3.3,5.7-4.5,8.6-2.6
					c2.9,2,3.6,6.2,2.1,9.3c-1.5,3.1-4.9,5-8.4,5.4c-1,2.7,1.4,5.4,3.8,7c2.4,1.6,5.2,3.5,5.3,6.4c0.1,1.3-0.5,2.8,0.3,4
					c0.4,0.6,1.1,1,1.8,1.3c3.2,1.4,6.4,2.8,9.6,4.3c1,0.4,2.1,0.9,3.2,0.8c0.9-0.1,3.1,0.8,3.9,0.4c5.8-3.4,13.3-6.7,17.1-12.1
					c3.7-5.2,4-11.5,4.2-17.9c0.2-6.4-1.5-13-5.5-18c-1-1.2-2.3-2.5-3.9-2.3c-0.5-5.2-4-10.3-8.7-12.4c-9.7-4.3-21,2.4-31.4,0.2
					C957.8,797.6,959.9,802.9,961.4,806.8z"/>
				<path class="st30" d="M1041.4,1249.4c-4.1-23.6-8.2-47.3-12.4-70.9c-4.9-27.1-8.9-54.5-15.5-81.2c-0.3-1.2-2.4-1-2.2,0.3
					c2.4,23.4,6.9,46.6,10.8,69.8c4,23.7,8.1,47.3,12.2,70.9c2,11.7,6.3,25.1,3.4,36.8c-2.5,10.1-9.7,19.1-14.5,28.2
					c-10,18.9-18,38.9-24.7,59.2c-7.7,23.3-14.2,47-20.5,70.7c-0.8,2.9,3.8,4.2,4.6,1.3c11.5-42.8,23.3-86,43.6-125.6
					c4.7-9.2,10.9-17.9,14.8-27.5C1045.4,1270.9,1043.3,1260.2,1041.4,1249.4z"/>
				<path class="st30" d="M941.3,1235.3c-1.5-9-3.4-17.8-5.5-26.6c-2.2-8.9-3.1-19.8,6.1-25c0.7-0.4,0.2-1.6-0.6-1.3
					c-13.3,4.2-9.9,21-7.9,31.2c3.3,17.1,6.3,34.5,6.9,51.9c0.7,17.1-4.6,32.7-11.1,48.3c-6.4,15.5-12.4,31-17.4,47.1
					c-2.8,9.1-5.4,18.3-7.7,27.6c-2.2,8.7-4.8,17.9-5.3,26.9c-0.1,1.8,2.5,2,3,0.4c2.5-7.4,3.7-15.3,5.5-22.9
					c2-7.9,4.1-15.8,6.4-23.6c4.6-15.3,10-30.4,16.1-45.3c5.7-13.9,12.1-27.8,14.2-42.9C946.2,1266.1,943.7,1250.2,941.3,1235.3z"/>
			</g>
		</g>
		<path class="st5" d="M1302,1578.1c-0.5,0-0.5,0.8,0,0.8C1302.6,1579,1302.6,1578.1,1302,1578.1z"/>
		<path class="st5" d="M1343.2,1597c-0.4-0.4-0.8-0.7-1.2-1.1c-0.3-0.2-0.6,0.1-0.4,0.4c0.4,0.4,0.7,0.8,1.1,1.2
			C1343,1597.8,1343.5,1597.3,1343.2,1597z"/>
		<path class="st5" d="M1326.6,1578.2c-0.5,0-0.5,0.8,0,0.8C1327.1,1578.9,1327.1,1578.2,1326.6,1578.2z"/>
		<path class="st5" d="M1302.5,1543.4c-0.1-0.4-0.8-0.4-0.8,0c-0.1,0.4-0.1,0.8-0.1,1.3c0,0.7,1.1,0.7,1,0
			C1302.6,1544.3,1302.5,1543.8,1302.5,1543.4z"/>
		<path class="st5" d="M1322.6,1529.7c-0.3-0.4-0.8-0.6-1.2-1c-1-0.8-2.7-0.6-3.7,0c-1.1,0.7-1.8,1.9-1.8,3.2c0,1.3,0.7,2.5,1.8,3.2
			c1,0.6,2.7,0.8,3.7,0c0.4-0.3,0.8-0.6,1.2-0.9c0.5-0.6,1-1.5,1-2.3C1323.5,1531,1323.2,1530.3,1322.6,1529.7z"/>
		<path class="st5" d="M1368.6,1541.1c-6.1,0-6.1,9.5,0,9.5C1374.7,1550.6,1374.7,1541.1,1368.6,1541.1z"/>
		<path class="st5" d="M1283.4,1557.2c-5,0-5,7.8,0,7.8C1288.4,1564.9,1288.4,1557.2,1283.4,1557.2z"/>
		<path class="st5" d="M1363.9,1581.3c-3.9,0-3.9,6.1,0,6.1C1367.8,1587.4,1367.8,1581.3,1363.9,1581.3z"/>
		<path class="st5" d="M1376.7,1587.3c-3.7,0-3.7,5.8,0,5.8C1380.5,1593.1,1380.5,1587.3,1376.7,1587.3z"/>
		<path class="st5" d="M1417.6,1554.7c-5.2,0-5.2,8.1,0,8.1C1422.8,1562.7,1422.8,1554.7,1417.6,1554.7z"/>
		<path class="st5" d="M1694.2,1571.5c-4.6,0-4.6,7.2,0,7.2C1698.8,1578.6,1698.8,1571.5,1694.2,1571.5z"/>
		<path class="st5" d="M1745.5,1569.2c-4.5,0-4.5,7,0,7C1750.1,1576.2,1750.1,1569.2,1745.5,1569.2z"/>
		<path class="st5" d="M1808.6,1542.9c-5.4,0-5.4,8.3,0,8.3C1813.9,1551.2,1813.9,1542.9,1808.6,1542.9z"/>
		<path class="st5" d="M1822.6,1592.6c-2.9,0-2.9,4.6,0,4.6C1825.5,1597.2,1825.5,1592.6,1822.6,1592.6z"/>
		<path class="st5" d="M1840.1,1609.2c-5.7,0-5.7,8.8,0,8.8C1845.7,1618,1845.7,1609.2,1840.1,1609.2z"/>
		<path class="st5" d="M1154.4,1396.5c-3.7,0-3.7,5.7,0,5.7C1158.1,1402.2,1158.1,1396.5,1154.4,1396.5z"/>
		<path class="st5" d="M1242.6,1403.3c-3.6,0-3.6,5.5,0,5.5C1246.1,1408.8,1246.1,1403.3,1242.6,1403.3z"/>
		<path class="st5" d="M1306.8,1398.2c-0.1-0.4-0.1-0.9-0.2-1.3c-0.1-0.3-0.3-0.7-0.4-1c-0.3-0.5-0.6-0.9-1.1-1.1
			c-0.7-0.5-1.6-0.9-2.5-0.9c-0.7,0-1.4,0.2-2.1,0.6c-0.8,0.4-1.7,1.5-1.9,2.4c-0.1,0.4-0.1,0.9-0.2,1.3c-0.2,0.8-0.2,1.5,0,2.3
			c0.2,0.7,0.6,1.4,1.1,1.9c0.8,0.8,1.9,1.3,3,1.3c1.1,0,2.3-0.5,3-1.3c0.5-0.5,0.9-1.2,1.1-1.9
			C1307,1399.7,1307,1399,1306.8,1398.2z"/>
		<path class="st5" d="M741.7,1433.2h-1.3c-1.2,0-2.3,1-2.2,2.2c0.1,1.2,1,2.2,2.2,2.2h1.3c1.1,0,2.3-1,2.2-2.2
			C743.9,1434.2,743,1433.2,741.7,1433.2z"/>
		<path class="st5" d="M797.2,1426.1c-1-0.3-2.3-0.2-3.4-0.2c-1.5,0-2.9,1.3-2.9,2.9c0.1,1.5,1.3,2.9,2.9,2.9c1.1,0,2.4,0.1,3.4-0.2
			c1.1-0.4,2.1-1.4,2-2.7C799.2,1427.5,798.4,1426.5,797.2,1426.1z"/>
		<path class="st5" d="M833.9,1431c-3.9,0-3.9,6.1,0,6.1C837.8,1437.1,837.8,1431,833.9,1431z"/>
		<path class="st5" d="M616.2,1431c-4,0-4,6.1,0,6.1C620.1,1437.2,620.1,1431,616.2,1431z"/>
		<path class="st5" d="M763.1,1417.7c-3.9,0-3.9,6,0,6C767,1423.7,767,1417.7,763.1,1417.7z"/>
		<path class="st31" d="M491.4,1472.4c-0.7-0.2-1.4-0.1-2-0.1c-0.5,0-0.5,0.7,0,0.7c0.7,0,1.4,0.1,2-0.1
			C491.7,1472.9,491.7,1472.5,491.4,1472.4z"/>
		<path class="st32" d="M354.7,1458.7c-2.9,0-2.9,4.5,0,4.5C357.6,1463.2,357.6,1458.7,354.7,1458.7z"/>
		<path class="st32" d="M448.4,1469c-2.2,0-2.2,3.4,0,3.4C450.6,1472.4,450.6,1469,448.4,1469z"/>
		<path class="st32" d="M395.8,1454.8c0,0.3,0,0.6,0.1,0.9c-0.2,2.7,1.9,3.9,4,3.8c2.1,0.1,4.2-1.1,4-3.8c0-0.3,0-0.6,0.1-0.9
			C404.2,1449.6,395.3,1449.6,395.8,1454.8z"/>
		<path class="st32" d="M495.2,1467.9c-4.8,0-4.8,7.4,0,7.4C500,1475.3,500,1467.9,495.2,1467.9z"/>
		<path class="st32" d="M540.1,1493.8c-3.9,0-3.9,6,0,6C544,1499.9,544,1493.8,540.1,1493.8z"/>
		<path class="st32" d="M622.9,1483.1c-3.3,0-3.3,5.1,0,5.1C626.2,1488.2,626.2,1483.1,622.9,1483.1z"/>
		<path class="st32" d="M704.6,1477.8c-0.5-1.7-2.3-2.7-4-2.2c-1.9,0.5-3.7,1-5.6,1.4c-1.7,0.4-2.7,2.3-2.2,3.9
			c0.5,1.7,2.2,2.6,3.9,2.2c1.9-0.5,3.7-0.9,5.6-1.4C704,1481.3,705,1479.4,704.6,1477.8z"/>
		<path class="st32" d="M311.9,1458.4c-0.4-0.5-0.9-0.8-1.5-1.1c-1.2-0.6-2.5-0.7-3.6,0c-1.1,0.6-1.8,1.8-1.8,3.1
			c0,1.3,0.7,2.5,1.8,3.1c1.2,0.7,2.5,0.6,3.6,0c0.4-0.2,0.9-0.4,1.2-0.8c0.6-0.6,1-1.5,1-2.3C312.6,1459.6,312.3,1459,311.9,1458.4
			z"/>
		<path class="st32" d="M770.2,1474.8c-3.1,0-3.1,4.8,0,4.8C773.3,1479.6,773.3,1474.8,770.2,1474.8z"/>
		<path class="st32" d="M826.3,1503.1c-4.6,0-4.7,7.2,0,7.2C831,1510.3,831,1503.1,826.3,1503.1z"/>
		<path class="st32" d="M864.2,1499.8c-5.3,0-5.3,8.2,0,8.2C869.5,1508,869.5,1499.8,864.2,1499.8z"/>
		<path class="st32" d="M919,1495.9c-6.7,0-6.7,10.4,0,10.4C925.7,1506.3,925.7,1495.9,919,1495.9z"/>
		<path class="st32" d="M1204.2,1450.1c-0.5-0.4-1-0.7-1.6-1c-1.1-0.5-2.3-0.6-3.3,0c-1,0.6-1.6,1.7-1.6,2.8c0,1.2,0.6,2.3,1.6,2.8
			c1.1,0.6,2.3,0.5,3.3,0c0.6-0.3,1.1-0.6,1.6-1C1205.2,1452.9,1205.2,1451,1204.2,1450.1z"/>
		<path class="st32" d="M1264.3,1463.8c-0.1-0.4-0.2-0.9-0.2-1.3c-0.1-0.6-0.6-1.1-1-1.5c-0.5-0.4-1.1-0.6-1.7-0.6
			c-0.5,0-1,0.2-1.4,0.4c-0.6,0.3-1.2,1.1-1.3,1.7c-0.1,0.4-0.2,0.9-0.2,1.3c-0.2,1.1-0.1,2.2,0.8,3c0.6,0.6,1.3,0.9,2.2,0.9
			c0.8,0,1.6-0.3,2.2-0.9C1264.3,1465.9,1264.5,1464.9,1264.3,1463.8z"/>
		<path class="st32" d="M1310.4,1447.9c-5.2,0-5.2,8.1,0,8.1C1315.6,1456,1315.6,1447.9,1310.4,1447.9z"/>
		<path class="st32" d="M1362.3,1438.4c-4.8,0-4.8,7.4,0,7.4C1367.1,1445.8,1367.1,1438.4,1362.3,1438.4z"/>
		<path class="st32" d="M1729.3,1420.1c-0.1-0.4-0.2-0.9-0.3-1.3c-0.3-1.4-1.8-2.5-3.2-2.5c-1.5,0.1-2.9,1-3.2,2.5
			c-0.1,0.4-0.2,0.9-0.3,1.3c-0.6,2.3,1.1,4.7,3.6,4.7C1728.2,1424.8,1729.9,1422.4,1729.3,1420.1z"/>
		<path class="st32" d="M1777.7,1415.8c-5,0-5,7.8,0,7.8C1782.7,1423.6,1782.7,1415.8,1777.7,1415.8z"/>
		<path class="st32" d="M1831,1409.1c-4.6,0-4.6,7.2,0,7.2C1835.6,1416.2,1835.6,1409.1,1831,1409.1z"/>
		<path class="st32" d="M1868.9,1402.8c-5.4,0-5.4,8.5,0,8.5C1874.3,1411.3,1874.3,1402.8,1868.9,1402.8z"/>
		<path class="st5" d="M1736.1,1358.1c-0.6,0-0.6,0.9,0,0.9C1736.7,1359,1736.7,1358.1,1736.1,1358.1z"/>
		<path class="st5" d="M1769.1,1354.1c-1.5,0.7-3,1.4-4.5,2.1c-0.5,0.3-0.1,1,0.4,0.8c1.5-0.7,2.9-1.5,4.3-2.3
			C1769.8,1354.4,1769.5,1353.9,1769.1,1354.1z"/>
		<path class="st5" d="M1888.2,1347.1c-1.5,0-2.9,0-4.4,0.1c-0.4,0-0.4,0.6,0,0.7c1.5,0.1,2.9,0.1,4.4,0.1
			C1888.8,1348,1888.8,1347.1,1888.2,1347.1z"/>
		<path class="st5" d="M1727.3,1369.4c-3.1,0-3.1,4.8,0,4.8C1730.4,1374.2,1730.4,1369.4,1727.3,1369.4z"/>
		<path class="st5" d="M1784.6,1362.9c-2.9,0-2.9,4.6,0,4.6C1787.5,1367.4,1787.5,1362.9,1784.6,1362.9z"/>
		<path class="st5" d="M1855.1,1347.4c-3,0-3,4.7,0,4.7C1858.2,1352.1,1858.2,1347.4,1855.1,1347.4z"/>
		<path class="st5" d="M1938.9,1335.8h-2.2c-1.5,0-3,1.4-3,3c0.1,1.6,1.3,3,3,3h2.2c1.5,0,3-1.4,3-3
			C1941.8,1337.1,1940.6,1335.8,1938.9,1335.8z"/>
	</g>
</g>
</svg>
